<svg width="356" height="149" viewBox="0 0 356 149" fill="none" xmlns="http://www.w3.org/2000/svg">
<path d="M82.9446 99C63.5375 95.7383 40.6106 138.655 37 148H343V123.469C327.204 125.972 309.602 87.4239 310.053 78.4125C310.504 69.4012 300.124 20.8401 282.071 27.849C264.018 34.8579 284.779 82.4175 259.504 95.9345C234.23 109.452 255.571 29.5 222.117 46.5C188.662 63.5 187.743 23.8439 169.239 14.3319C150.735 4.81982 134.938 49.376 119.142 49.376C103.345 49.376 102.352 102.262 82.9446 99Z" fill="url(#paint0_linear_2124_855)"/>
<path d="M37 148C40.6106 138.655 63.5375 95.7383 82.9446 99C102.352 102.262 103.345 49.376 119.142 49.376C134.938 49.376 150.735 4.81982 169.239 14.3319C187.743 23.8439 188.662 63.5 222.117 46.5C255.571 29.5 234.23 109.452 259.504 95.9345C284.779 82.4175 264.018 34.8579 282.071 27.849C300.124 20.8401 310.504 69.4012 310.053 78.4125C309.602 87.4239 327.204 125.972 343 123.469" stroke="#F8D247" stroke-width="2" stroke-linecap="round" stroke-linejoin="round"/>
<g filter="url(#filter0_d_2124_855)">
<circle cx="341" cy="122" r="7" fill="#FAFAFA" fill-opacity="0.93"/>
<circle cx="341" cy="122" r="5" fill="#F8D247"/>
</g>
<path d="M5.52859 6.81818H3.77362L1.24308 8.44389V10.1342L3.62447 8.61293H3.68413V17H5.52859V6.81818ZM11.8773 17.1939C14.3333 17.1989 15.7999 15.2599 15.7999 11.919C15.7999 8.59801 14.3233 6.67898 11.8773 6.67898C9.43129 6.67898 7.95969 8.59304 7.95472 11.919C7.95472 15.255 9.42134 17.1939 11.8773 17.1939ZM11.8773 15.6378C10.6096 15.6378 9.8141 14.3651 9.81907 11.919C9.82404 9.4929 10.6145 8.2152 11.8773 8.2152C13.1451 8.2152 13.9355 9.4929 13.9405 11.919C13.9405 14.3651 13.15 15.6378 11.8773 15.6378ZM17.4716 17H19.2713V14.4347L19.9276 13.7337L22.2642 17H24.4169L21.2848 12.6598L24.2429 9.36364H22.1399L19.3956 12.4311H19.2713V6.81818H17.4716V17Z" fill="#ABABAB"/>
<path d="M5.02956 83.1392C7.18226 83.1392 8.68368 81.6776 8.68368 79.6541C8.68368 77.6953 7.32147 76.2834 5.47203 76.2834C4.64675 76.2834 3.91593 76.6115 3.53809 77.0589H3.47843L3.77175 74.3594H8.15172V72.8182H2.24547L1.71351 78.0682L3.379 78.3416C3.72203 77.9638 4.36834 77.7102 4.97985 77.7152C6.09846 77.7202 6.90385 78.5455 6.89888 79.6989C6.90385 80.8374 6.11834 81.6477 5.02956 81.6477C4.10982 81.6477 3.36905 81.0661 3.30442 80.2308H1.51465C1.56436 81.9212 3.04093 83.1392 5.02956 83.1392ZM10.3691 83H12.1688V80.4347L12.825 79.7337L15.1617 83H17.3144L14.1823 78.6598L17.1404 75.3636H15.0374L12.2931 78.4311H12.1688V72.8182H10.3691V83Z" fill="#ABABAB"/>
<path d="M4.99938 148.194C7.45534 148.199 8.92196 146.26 8.92196 142.919C8.92196 139.598 7.4454 137.679 4.99938 137.679C2.55336 137.679 1.08176 139.593 1.07679 142.919C1.07679 146.255 2.54341 148.194 4.99938 148.194ZM4.99938 146.638C3.73162 146.638 2.93617 145.365 2.94114 142.919C2.94611 140.493 3.73659 139.215 4.99938 139.215C6.26713 139.215 7.05762 140.493 7.06259 142.919C7.06259 145.365 6.27211 146.638 4.99938 146.638Z" fill="#ABABAB"/>
<defs>
<filter id="filter0_d_2124_855" x="326" y="111" width="30" height="30" filterUnits="userSpaceOnUse" color-interpolation-filters="sRGB">
<feFlood flood-opacity="0" result="BackgroundImageFix"/>
<feColorMatrix in="SourceAlpha" type="matrix" values="0 0 0 0 0 0 0 0 0 0 0 0 0 0 0 0 0 0 127 0" result="hardAlpha"/>
<feOffset dy="4"/>
<feGaussianBlur stdDeviation="4"/>
<feColorMatrix type="matrix" values="0 0 0 0 0 0 0 0 0 0 0 0 0 0 0 0 0 0 0.16 0"/>
<feBlend mode="normal" in2="BackgroundImageFix" result="effect1_dropShadow_2124_855"/>
<feBlend mode="normal" in="SourceGraphic" in2="effect1_dropShadow_2124_855" result="shape"/>
</filter>
<linearGradient id="paint0_linear_2124_855" x1="190" y1="13" x2="190" y2="148" gradientUnits="userSpaceOnUse">
<stop offset="0.270369" stop-color="#F8D247" stop-opacity="0.21"/>
<stop offset="1" stop-color="#F8D247" stop-opacity="0.03"/>
</linearGradient>
</defs>
</svg>