<svg width="308" height="137" viewBox="0 0 308 137" fill="none" xmlns="http://www.w3.org/2000/svg">
    <defs>
        <linearGradient id="paint0_linear_1759_4" x1="154" y1="1" x2="154" y2="136" gradientUnits="userSpaceOnUse">
        <stop offset="0.270369" stop-color="#F8D247" stop-opacity="0.21"/>
        <stop offset="1" stop-color="#F8D247" stop-opacity="0.03"/>
        </linearGradient>
    </defs>
    <path d="M46.9446 87C27.5375 83.7383 4.61062 126.655 1 136H307V111.469C291.204 113.972 273.602 75.4239 274.053 66.4125C274.504 57.4012 264.124 8.84006 246.071 15.849C228.018 22.8579 248.779 70.4175 223.504 83.9345C198.23 97.4516 219.571 17.5 186.117 34.5C152.662 51.5 151.743 11.8439 133.239 2.33188C114.735 -7.18018 98.9381 37.376 83.1416 37.376C67.3451 37.376 66.3517 90.2617 46.9446 87Z" fill="url(#paint0_linear_1759_4)"/>
    <path d="M1 136C4.61062 126.655 27.5375 83.7383 46.9446 87C66.3517 90.2617 67.3451 37.376 83.1416 37.376C98.9381 37.376 114.735 -7.18018 133.239 2.33188C151.743 11.8439 152.662 51.5 186.117 34.5C219.571 17.5 198.23 97.4516 223.504 83.9345C248.779 70.4175 228.018 22.8579 246.071 15.849C264.124 8.84006 274.504 57.4012 274.053 66.4125C273.602 75.4239 291.204 113.972 307 111.469" stroke="#F8D247" stroke-width="2" stroke-linecap="round" stroke-linejoin="round"/>
</svg>